# xmcd
#
# Track frame offsets: 
#        150
#        13440
#        24967
#        35567
#        47635
#        59510
#        72770
#        85032
#        97317
#        109910
#        129202
#        140967
#        153882
#        168510
#        181980
#        197785
#        207562
#        222010
#        235182
#        249282
#
# Disc length: 3496 seconds
#
# Revision: 11
# Processed by: cddbd v1.5.2PL0 Copyright (c) Steve Scherf et al.
# Submitted via: ExactAudioCopyFreeDBPlugin 1.0
#
DISCID=200da614
DTITLE=Otis Redding - The Very Best Of Otis Redding CD2
DYEAR=2000
DGENRE=Soul
TTITLE0=I've Been Loving You Too Long (To Stop Now)
TTITLE1=These Arms Of Mine
TTITLE2=Hard To Handle
TTITLE3=That's What My Heart Needs
TTITLE4=Security
TTITLE5=Satisfaction
TTITLE6=Fa Fa Fa Fa Fa (Sad Song)
TTITLE7=The Happy Song (Dum Dum)
TTITLE8=Come To Me
TTITLE9=A Change Is Gonna Come
TTITLE10=Lovey Dovey
TTITLE11=You Don't Miss Your Water
TTITLE12=I've Got Dreams To Remember
TTITLE13=Down In The Valley
TTITLE14=Just One More Day
TTITLE15=You Made A Man Out Of Me
TTITLE16=Tell The Truth
TTITLE17=For Your Precious Love
TTITLE18=Free Me
TTITLE19=I Love You More Than Words Can Say
EXTD=The Lost Music World
EXTT0=
EXTT1=
EXTT2=
EXTT3=
EXTT4=
EXTT5=
EXTT6=
EXTT7=
EXTT8=
EXTT9=
EXTT10=
EXTT11=
EXTT12=
EXTT13=
EXTT14=
EXTT15=
EXTT16=
EXTT17=
EXTT18=
EXTT19=
PLAYORDER=
